<svg width="20" height="12" viewBox="0 0 20 12" fill="none" xmlns="http://www.w3.org/2000/svg">
<path d="M12.8214 10.5062C13.201 10.1341 13.5462 9.77839 13.8568 9.43913C14.1674 9.09986 14.4492 8.7606 14.7023 8.42134C14.9554 8.08208 15.1855 7.73735 15.3926 7.38714C15.6112 7.02599 15.8067 6.63748 15.9793 6.22161L11.2683 4.00547C11.2683 3.40356 11.3834 2.85636 11.6135 2.36389C11.855 1.87141 12.1714 1.45007 12.5626 1.09986C12.9537 0.749658 13.4139 0.481532 13.9431 0.295486C14.4722 0.0984952 15.0302 0 15.6169 0C16.2726 0 16.8709 0.0984952 17.4116 0.295486C17.9523 0.481532 18.4124 0.749658 18.7921 1.09986C19.1717 1.43912 19.4651 1.86047 19.6721 2.36389C19.8907 2.85636 20 3.40356 20 4.00547C20 4.62928 19.8792 5.28044 19.6376 5.95896C19.4075 6.62654 19.0682 7.30506 18.6195 7.99453C18.1708 8.684 17.6244 9.36799 16.9802 10.0465C16.3474 10.725 15.6284 11.3762 14.8231 12L12.8214 10.5062ZM1.55306 10.5062C1.9327 10.1341 2.27783 9.77839 2.58844 9.43913C2.89905 9.09986 3.1809 8.7606 3.434 8.42134C3.68709 8.08208 3.91717 7.73735 4.12425 7.38714C4.34282 7.02599 4.5384 6.63748 4.71096 6.22161L0 4.00547C0 3.40356 0.115042 2.85636 0.345125 2.36389C0.586713 1.87141 0.903077 1.45007 1.29422 1.09986C1.68536 0.749658 2.14553 0.481532 2.67472 0.295486C3.20391 0.0984952 3.76186 0 4.34858 0C5.00431 0 5.60253 0.0984952 6.14323 0.295486C6.68392 0.481532 7.14409 0.749658 7.52373 1.09986C7.90337 1.43912 8.19672 1.86047 8.4038 2.36389C8.62238 2.85636 8.73167 3.40356 8.73167 4.00547C8.73167 4.62928 8.61087 5.28044 8.36928 5.95896C8.1392 6.62654 7.79983 7.30506 7.35116 7.99453C6.9025 8.684 6.35605 9.36799 5.71182 10.0465C5.07909 10.725 4.36008 11.3762 3.55479 12L1.55306 10.5062Z" fill="#E4D1A7"/>
</svg>
