<svg width="20" height="12" viewBox="0 0 20 12" fill="none" xmlns="http://www.w3.org/2000/svg">
<path d="M15.6514 12C14.9957 12 14.3975 11.9068 13.8568 11.7205C13.3161 11.5233 12.8559 11.2548 12.4763 10.9151C12.0966 10.5644 11.7975 10.1425 11.5789 9.64931C11.3719 9.15616 11.2683 8.60822 11.2683 8.00548C11.2683 7.38082 11.3834 6.72877 11.6135 6.04932C11.855 5.36986 12.2002 4.68493 12.6488 3.99452C13.0975 3.30411 13.6382 2.62466 14.2709 1.95616C14.9152 1.27671 15.6457 0.624658 16.4625 0L18.4469 1.47945C18.0673 1.85205 17.7222 2.20822 17.4116 2.54795C17.1125 2.88767 16.8364 3.2274 16.5833 3.56712C16.3302 3.90685 16.0943 4.25753 15.8758 4.61918C15.6687 4.98082 15.4789 5.36438 15.3063 5.76986L20 8.00548C20 8.59726 19.8792 9.13973 19.6376 9.63288C19.4075 10.126 19.0969 10.5479 18.7058 10.8986C18.3146 11.2493 17.8545 11.5233 17.3253 11.7205C16.7961 11.9068 16.2381 12 15.6514 12ZM4.38309 12C3.72735 12 3.12913 11.9068 2.58844 11.7205C2.04774 11.5233 1.58758 11.2548 1.20794 10.9151C0.8283 10.5644 0.529192 10.1425 0.310613 9.64931C0.103538 9.15616 0 8.60822 0 8.00548C0 7.38082 0.115042 6.72877 0.345125 6.04932C0.586713 5.36986 0.931838 4.68493 1.3805 3.99452C1.82916 3.30411 2.36986 2.62466 3.00259 1.95616C3.64682 1.27671 4.37734 0.624658 5.19413 0L7.1786 1.47945C6.79896 1.85205 6.45384 2.20822 6.14323 2.54795C5.84412 2.88767 5.56802 3.2274 5.31493 3.56712C5.06183 3.90685 4.826 4.25753 4.60742 4.61918C4.40035 4.98082 4.21053 5.36438 4.03796 5.76986L8.73167 8.00548C8.73167 8.59726 8.61087 9.13973 8.36928 9.63288C8.1392 10.126 7.82859 10.5479 7.43745 10.8986C7.0463 11.2493 6.58614 11.5233 6.05695 11.7205C5.52775 11.9068 4.9698 12 4.38309 12Z" fill="#E4D1A7"/>
</svg>
