<svg width="24" height="24" viewBox="0 0 24 24" fill="none" xmlns="http://www.w3.org/2000/svg">
<path d="M3.25 20.125C3.25 21.1602 4.08984 22 5.125 22H18.875C19.9102 22 20.75 21.1602 20.75 20.125V9.5H3.25V20.125ZM15.75 12.4688C15.75 12.2109 15.9609 12 16.2188 12H17.7812C18.0391 12 18.25 12.2109 18.25 12.4688V14.0312C18.25 14.2891 18.0391 14.5 17.7812 14.5H16.2188C15.9609 14.5 15.75 14.2891 15.75 14.0312V12.4688ZM15.75 17.4688C15.75 17.2109 15.9609 17 16.2188 17H17.7812C18.0391 17 18.25 17.2109 18.25 17.4688V19.0312C18.25 19.2891 18.0391 19.5 17.7812 19.5H16.2188C15.9609 19.5 15.75 19.2891 15.75 19.0312V17.4688ZM10.75 12.4688C10.75 12.2109 10.9609 12 11.2188 12H12.7812C13.0391 12 13.25 12.2109 13.25 12.4688V14.0312C13.25 14.2891 13.0391 14.5 12.7812 14.5H11.2188C10.9609 14.5 10.75 14.2891 10.75 14.0312V12.4688ZM10.75 17.4688C10.75 17.2109 10.9609 17 11.2188 17H12.7812C13.0391 17 13.25 17.2109 13.25 17.4688V19.0312C13.25 19.2891 13.0391 19.5 12.7812 19.5H11.2188C10.9609 19.5 10.75 19.2891 10.75 19.0312V17.4688ZM5.75 12.4688C5.75 12.2109 5.96094 12 6.21875 12H7.78125C8.03906 12 8.25 12.2109 8.25 12.4688V14.0312C8.25 14.2891 8.03906 14.5 7.78125 14.5H6.21875C5.96094 14.5 5.75 14.2891 5.75 14.0312V12.4688ZM5.75 17.4688C5.75 17.2109 5.96094 17 6.21875 17H7.78125C8.03906 17 8.25 17.2109 8.25 17.4688V19.0312C8.25 19.2891 8.03906 19.5 7.78125 19.5H6.21875C5.96094 19.5 5.75 19.2891 5.75 19.0312V17.4688ZM18.875 4.5H17V2.625C17 2.28125 16.7188 2 16.375 2H15.125C14.7812 2 14.5 2.28125 14.5 2.625V4.5H9.5V2.625C9.5 2.28125 9.21875 2 8.875 2H7.625C7.28125 2 7 2.28125 7 2.625V4.5H5.125C4.08984 4.5 3.25 5.33984 3.25 6.375V8.25H20.75V6.375C20.75 5.33984 19.9102 4.5 18.875 4.5Z" fill="#CCDD89"/>
</svg>
