<svg width="32" height="32" viewBox="0 0 32 32" fill="none" xmlns="http://www.w3.org/2000/svg">
<path d="M1 10.5V29C1 30.1046 1.89543 31 3 31H29C30.1046 31 31 30.1046 31 29V10.5M1 10.5V4.5C1 3.39543 1.89543 2.5 3 2.5H8.5M1 10.5H31M31 10.5V4.5C31 3.39543 30.1046 2.5 29 2.5H23.5M8.5 2.5H16H23.5M8.5 2.5V1M8.5 2.5V4M23.5 2.5V1M23.5 2.5V4" stroke="#DC7C72" stroke-width="2" stroke-linecap="round" stroke-linejoin="round"/>
<rect x="4" y="13.75" width="6" height="4.5" rx="1" fill="#DC7C72"/>
<rect x="4" y="19" width="6" height="4.5" rx="1" fill="#DC7C72"/>
<rect x="4" y="24.25" width="6" height="4.5" rx="1" fill="#DC7C72"/>
<rect x="13" y="13.75" width="6" height="4.5" rx="1" fill="#DC7C72"/>
<rect x="13" y="19" width="6" height="4.5" rx="1" fill="#DC7C72"/>
<rect x="13" y="24.25" width="6" height="4.5" rx="1" fill="#DC7C72"/>
<rect x="22" y="13.75" width="6" height="4.5" rx="1" fill="#DC7C72"/>
<rect x="22" y="19" width="6" height="4.5" rx="1" fill="#DC7C72"/>
<rect x="22" y="24.25" width="6" height="4.5" rx="1" fill="#DC7C72"/>
</svg>
