<svg width="18" height="18" viewBox="0 0 18 18" fill="none" xmlns="http://www.w3.org/2000/svg">
<path d="M9 1.5C4.85785 1.5 1.5 4.85785 1.5 9C1.5 13.1421 4.85785 16.5 9 16.5C13.1421 16.5 16.5 13.1421 16.5 9C16.5 4.85785 13.1421 1.5 9 1.5ZM9 2.95161C12.3427 2.95161 15.0484 5.65678 15.0484 9C15.0484 12.3427 12.3432 15.0484 9 15.0484C5.6573 15.0484 2.95161 12.3432 2.95161 9C2.95161 5.6573 5.65678 2.95161 9 2.95161ZM13.24 6.89114L12.5585 6.2041C12.4174 6.06181 12.1876 6.06088 12.0453 6.20205L7.77054 10.4424L5.96232 8.61956C5.82118 8.47727 5.5914 8.47633 5.44911 8.61747L4.76205 9.299C4.61976 9.44014 4.61882 9.66992 4.75999 9.81224L7.50538 12.5799C7.64652 12.7221 7.8763 12.7231 8.01859 12.5819L13.238 7.40438C13.3803 7.26321 13.3812 7.03343 13.24 6.89114V6.89114Z" fill="#CCDD89"/>
</svg>
