<svg width="24" height="24" viewBox="0 0 24 24" fill="none" xmlns="http://www.w3.org/2000/svg">
<path d="M19.1727 5.56744C17.8798 4.97418 16.4933 4.53709 15.0436 4.28676C15.0172 4.28192 14.9909 4.294 14.9773 4.31815C14.7989 4.63529 14.6014 5.04904 14.4631 5.37424C12.9039 5.14081 11.3527 5.14081 9.82549 5.37424C9.68714 5.04181 9.48246 4.63529 9.30334 4.31815C9.28974 4.2948 9.26337 4.28273 9.23697 4.28676C7.78811 4.53629 6.40163 4.97338 5.10789 5.56744C5.09669 5.57226 5.08709 5.58032 5.08071 5.59078C2.45084 9.51975 1.73041 13.3522 2.08383 17.137C2.08543 17.1556 2.09582 17.1733 2.11022 17.1845C3.84533 18.4588 5.52609 19.2323 7.17563 19.7451C7.20203 19.7531 7.23 19.7435 7.2468 19.7217C7.637 19.1889 7.98483 18.627 8.28306 18.0362C8.30066 18.0016 8.28386 17.9605 8.24789 17.9468C7.69617 17.7375 7.17083 17.4824 6.66549 17.1926C6.62551 17.1692 6.62231 17.1121 6.65909 17.0847C6.76543 17.005 6.8718 16.9221 6.97334 16.8384C6.99171 16.8231 7.01731 16.8199 7.03891 16.8295C10.3588 18.3453 13.953 18.3453 17.2337 16.8295C17.2553 16.8191 17.2809 16.8223 17.3001 16.8376C17.4016 16.9213 17.508 17.005 17.6151 17.0847C17.6519 17.1121 17.6495 17.1692 17.6095 17.1926C17.1042 17.488 16.5788 17.7375 16.0263 17.946C15.9903 17.9597 15.9743 18.0016 15.9919 18.0362C16.2966 18.6262 16.6444 19.188 17.0274 19.7209C17.0434 19.7435 17.0722 19.7531 17.0986 19.7451C18.7561 19.2323 20.4369 18.4588 22.172 17.1845C22.1872 17.1733 22.1968 17.1564 22.1984 17.1378C22.6213 12.7621 21.4899 8.96112 19.1991 5.59158C19.1935 5.58032 19.1839 5.57226 19.1727 5.56744ZM8.77883 14.8324C7.77931 14.8324 6.95574 13.9148 6.95574 12.7879C6.95574 11.6609 7.76334 10.7433 8.77883 10.7433C9.80229 10.7433 10.6179 11.669 10.6019 12.7879C10.6019 13.9148 9.79429 14.8324 8.77883 14.8324ZM15.5194 14.8324C14.5199 14.8324 13.6963 13.9148 13.6963 12.7879C13.6963 11.6609 14.5039 10.7433 15.5194 10.7433C16.5429 10.7433 17.3584 11.669 17.3425 12.7879C17.3425 13.9148 16.5429 14.8324 15.5194 14.8324Z" fill="#9C9F8D"/>
</svg>
