<svg width="24" height="24" viewBox="0 0 24 24" fill="none" xmlns="http://www.w3.org/2000/svg">
<path d="M9.98024 2.19668C6.09737 2.95451 2.96841 6.07565 2.20277 9.94681C0.757438 17.2516 7.34739 22.697 12.3123 21.9275C13.9217 21.6775 14.7108 19.7946 13.9725 18.3454C13.0701 16.5719 14.3592 14.5016 16.3514 14.5016H19.4648C20.8632 14.5016 21.9961 13.3453 22 11.9507C21.9804 5.7944 16.3788 0.950571 9.98024 2.19668ZM5.7497 14.5016C5.05829 14.5016 4.49968 13.943 4.49968 13.2515C4.49968 12.5601 5.05829 12.0015 5.7497 12.0015C6.44112 12.0015 6.99972 12.5601 6.99972 13.2515C6.99972 13.943 6.44112 14.5016 5.7497 14.5016ZM6.99972 9.50149C6.30831 9.50149 5.7497 8.94289 5.7497 8.25147C5.7497 7.56005 6.30831 7.00145 6.99972 7.00145C7.69114 7.00145 8.24974 7.56005 8.24974 8.25147C8.24974 8.94289 7.69114 9.50149 6.99972 9.50149ZM11.9998 7.00145C11.3084 7.00145 10.7498 6.44285 10.7498 5.75143C10.7498 5.06001 11.3084 4.50141 11.9998 4.50141C12.6912 4.50141 13.2498 5.06001 13.2498 5.75143C13.2498 6.44285 12.6912 7.00145 11.9998 7.00145ZM16.9999 9.50149C16.3085 9.50149 15.7499 8.94289 15.7499 8.25147C15.7499 7.56005 16.3085 7.00145 16.9999 7.00145C17.6913 7.00145 18.2499 7.56005 18.2499 8.25147C18.2499 8.94289 17.6913 9.50149 16.9999 9.50149Z" fill="#CCDD89"/>
</svg>
