<svg width="24" height="24" viewBox="0 0 24 24" fill="none" xmlns="http://www.w3.org/2000/svg">
<path d="M21.6211 9.45313C21.7734 9.33203 22 9.44531 22 9.63672V17.625C22 18.6602 21.1602 19.5 20.125 19.5H3.875C2.83984 19.5 2 18.6602 2 17.625V9.64063C2 9.44531 2.22266 9.33594 2.37891 9.45703C3.25391 10.1367 4.41406 11 8.39844 13.8945C9.22266 14.4961 10.6133 15.7617 12 15.7539C13.3945 15.7656 14.8125 14.4727 15.6055 13.8945C19.5898 11 20.7461 10.1328 21.6211 9.45313ZM12 14.5C12.9063 14.5156 14.2109 13.3594 14.8672 12.8828C20.0508 9.12109 20.4453 8.79297 21.6406 7.85547C21.8672 7.67969 22 7.40625 22 7.11719V6.375C22 5.33984 21.1602 4.5 20.125 4.5H3.875C2.83984 4.5 2 5.33984 2 6.375V7.11719C2 7.40625 2.13281 7.67578 2.35937 7.85547C3.55469 8.78906 3.94922 9.12109 9.13281 12.8828C9.78906 13.3594 11.0937 14.5156 12 14.5Z" fill="#CCDD89"/>
</svg>
