<svg width="24" height="24" viewBox="0 0 24 24" fill="none" xmlns="http://www.w3.org/2000/svg">
<path d="M4.97465 7.09105L4.97465 5.68962C4.97465 5.09622 5.45442 4.61645 6.04466 4.61961L18.3135 4.61646C18.9069 4.61646 19.3867 5.09622 19.3835 5.68647L19.3835 17.9521C19.3835 18.5455 18.9037 19.0253 18.3135 19.0221L16.9121 19.0221C16.3124 19.0221 15.8294 18.5266 15.8421 17.9269L16.022 10.5063L6.95054 19.5777C6.53075 19.9975 5.85528 19.9975 5.43548 19.5777L4.42544 18.5676C4.00565 18.1478 4.00565 17.4724 4.42544 17.0526L13.4969 7.98115L6.06991 8.16106C5.46705 8.17685 4.9715 7.69392 4.97465 7.09105Z" fill="#CCDD89"/>
</svg>
